{"accessors" : [{"bufferView" : 0, "byteOffset" : 0, "componentType" : 5123, "count" : 36, "type" : "SCALAR", "max" : [29], "min" : [0]}, {"bufferView" : 1, "byteOffset" : 0, "componentType" : 5126, "count" : 30, "type" : "VEC3", "max" : [1, 1, 1], "min" : [-1, -1, -1], "name" : "POSITION"}, {"bufferView" : 1, "byteOffset" : 12, "componentType" : 5126, "count" : 30, "type" : "VEC3", "max" : [1.0000044107437134, 1.0000044107437134, 1.0000044107437134], "min" : [-1.0000044107437134, -1.0000044107437134, -1.0000044107437134], "name" : "NORMAL"}, {"bufferView" : 1, "byteOffset" : 24, "componentType" : 5126, "count" : 30, "type" : "VEC2", "max" : [0.875, 1], "min" : [0.125, 0], "name" : "TEXCOORD_0"}, {"bufferView" : 0, "byteOffset" : 72, "componentType" : 5123, "count" : 36, "type" : "SCALAR", "max" : [29], "min" : [0]}, {"bufferView" : 2, "byteOffset" : 0, "componentType" : 5126, "count" : 30, "type" : "VEC3", "max" : [1, 1, 1], "min" : [-1, -1, -1], "name" : "POSITION"}, {"bufferView" : 2, "byteOffset" : 12, "componentType" : 5126, "count" : 30, "type" : "VEC3", "max" : [1.0000044107437134, 1.0000044107437134, 1.0000044107437134], "min" : [-1.0000044107437134, -1.0000044107437134, -1.0000044107437134], "name" : "NORMAL"}, {"bufferView" : 2, "byteOffset" : 24, "componentType" : 5126, "count" : 30, "type" : "VEC2", "max" : [0.875, 1], "min" : [0.125, 0], "name" : "TEXCOORD_0"}], "asset" : {"generator" : "Aspose.3D 22.6", "version" : "2.0"}, "buffers" : [{"uri" : "data:application/octet-stream;base64,", "byteLength" : 2460}], "bufferViews" : [{"buffer" : 0, "byteOffset" : 0, "byteLength" : 144, "target" : 34963}, {"buffer" : 0, "byteOffset" : 148, "byteLength" : 1152, "byteStride" : 32, "target" : 34962}, {"buffer" : 0, "byteOffset" : 1304, "byteLength" : 1152, "byteStride" : 32, "target" : 34962}], "materials" : [{"name" : "Material.001", "pbrMetallicRoughness" : {"baseColorFactor" : [1, 1, 1, 1], "metallicFactor" : 1, "roughnessFactor" : 1}, "emissiveFactor" : [0, 0, 0], "alphaMode" : "OPAQUE", "doubleSided" : true}, {"name" : "Material.002", "pbrMetallicRoughness" : {"baseColorFactor" : [1, 1, 1, 1], "metallicFactor" : 1, "roughnessFactor" : 1}, "emissiveFactor" : [0, 0, 0], "alphaMode" : "OPAQUE", "doubleSided" : true}], "meshes" : [{"primitives" : [{"attributes" : {"POSITION" : 1, "NORMAL" : 2, "TEXCOORD_0" : 3}, "indices" : 0, "material" : 0, "mode" : 4}]}, {"primitives" : [{"attributes" : {"POSITION" : 5, "NORMAL" : 6, "TEXCOORD_0" : 7}, "indices" : 4, "material" : 1, "mode" : 4}]}], "nodes" : [{"matrix" : [-4.349538278648426, 0.06614551351313987, -1.182047344464098, 0, -0.06800042808422156, -4.507267658189636, -0.002000822719545051, 0, 1.1819422108816213, -0.015900741677246047, -4.35004120273928, 0, -3.0643811225891113, 10.532870292663574, -2.5402233600616455, 1], "mesh" : 0, "name" : "Cube"}, {"matrix" : [-4.349538278648426, 0.06614551351313987, -1.182047344464098, 0, -0.06800042808422156, -4.507267658189636, -0.002000822719545051, 0, 1.1819422108816213, -0.015900741677246047, -4.35004120273928, 0, -3.0643811225891113, 10.532870292663574, -2.5402233600616455, 1], "mesh" : 1, "name" : "Cube.001"}], "scene" : 0, "scenes" : [{"nodes" : [0, 1]}]}