{
    "asset" : {
        "generator" : "Khronos glTF Blender I/O v1.6.16",
        "version" : "2.0"
    },
    "scene" : 0,
    "scenes" : [
        {
            "name" : "Scene",
            "nodes" : [
                0,
                1,
                2,
                3,
                4,
                5,
                7,
                8
            ]
        }
    ],
    "nodes" : [
        {
            "name" : "Area",
            "rotation" : [
                -0.055082958191633224,
                -0.3600775897502899,
                -0.42875203490257263,
                0.8267296552658081
            ],
            "translation" : [
                0.867896556854248,
                16.148681640625,
                -0.4094705581665039
            ]
        },
        {
            "mesh" : 0,
            "name" : "Cube",
            "rotation" : [
                -0.0007777404971420765,
                -0.13227203488349915,
                -0.007505853194743395,
                0.9911848306655884
            ],
            "scale" : [
                -4.507781505584717,
                -4.507781028747559,
                -4.507781982421875
            ],
            "translation" : [
                -3.0643811225891113,
                10.532870292663574,
                -2.5402233600616455
            ]
        },
        {
            "name" : "Light",
            "rotation" : [
                0.16907575726509094,
                0.7558803558349609,
                -0.27217137813568115,
                0.570947527885437
            ],
            "translation" : [
                5.894756317138672,
                16.26668930053711,
                -4.25333309173584
            ]
        },
        {
            "name" : "Point",
            "translation" : [
                -11.81657886505127,
                -2.204709529876709,
                3.4015049934387207
            ]
        },
        {
            "mesh" : 1,
            "name" : "NurbsPath",
            "translation" : [
                1.0991325378417969,
                22.127548217773438,
                20.699373245239258
            ]
        },
        {
            "mesh" : 2,
            "name" : "NurbsPath.002",
            "rotation" : [
                -0.05502099171280861,
                -0.04471469298005104,
                0.39177170395851135,
                0.917326807975769
            ],
            "scale" : [
                7.845593452453613,
                7.8455939292907715,
                7.845592975616455
            ],
            "translation" : [
                -31.174095153808594,
                -100.57970428466797,
                63.20021057128906
            ]
        },
        {
            "name" : "Camera",
            "rotation" : [
                0.6498223543167114,
                -0.7032023072242737,
                0.18951958417892456,
                0.21753108501434326
            ],
            "scale" : [
                0.17817671597003937,
                0.17817673087120056,
                0.17817671597003937
            ],
            "translation" : [
                -1.9936964511871338,
                0.00938764214515686,
                -0.01049107313156128
            ]
        },
        {
            "children" : [
                6
            ],
            "mesh" : 3,
            "name" : "NurbsPath.001",
            "rotation" : [
                -0.1964934915304184,
                0.16522499918937683,
                0.8172203302383423,
                0.5159863829612732
            ],
            "scale" : [
                5.612404823303223,
                5.612404823303223,
                5.612404823303223
            ],
            "translation" : [
                -3.054659128189087,
                7.00747537612915,
                -1.079149842262268
            ]
        },
        {
            "mesh" : 4,
            "name" : "Cube.001",
            "rotation" : [
                -0.0007777404971420765,
                -0.13227203488349915,
                -0.007505853194743395,
                0.9911848306655884
            ],
            "scale" : [
                -4.507781505584717,
                -4.507781028747559,
                -4.507781982421875
            ],
            "translation" : [
                -3.0643811225891113,
                10.532870292663574,
                -2.5402233600616455
            ]
        }
    ],
    "animations" : [
        {
            "channels" : [
                {
                    "sampler" : 0,
                    "target" : {
                        "node" : 1,
                        "path" : "translation"
                    }
                },
                {
                    "sampler" : 1,
                    "target" : {
                        "node" : 1,
                        "path" : "rotation"
                    }
                },
                {
                    "sampler" : 2,
                    "target" : {
                        "node" : 1,
                        "path" : "scale"
                    }
                }
            ],
            "name" : "CubeAction",
            "samplers" : [
                {
                    "input" : 9,
                    "interpolation" : "STEP",
                    "output" : 10
                },
                {
                    "input" : 9,
                    "interpolation" : "STEP",
                    "output" : 11
                },
                {
                    "input" : 9,
                    "interpolation" : "STEP",
                    "output" : 12
                }
            ]
        },
        {
            "channels" : [
                {
                    "sampler" : 0,
                    "target" : {
                        "node" : 5,
                        "path" : "translation"
                    }
                },
                {
                    "sampler" : 1,
                    "target" : {
                        "node" : 5,
                        "path" : "rotation"
                    }
                },
                {
                    "sampler" : 2,
                    "target" : {
                        "node" : 5,
                        "path" : "scale"
                    }
                }
            ],
            "name" : "NurbsPath.002Action.001",
            "samplers" : [
                {
                    "input" : 13,
                    "interpolation" : "LINEAR",
                    "output" : 14
                },
                {
                    "input" : 13,
                    "interpolation" : "LINEAR",
                    "output" : 15
                },
                {
                    "input" : 13,
                    "interpolation" : "LINEAR",
                    "output" : 16
                }
            ]
        },
        {
            "channels" : [
                {
                    "sampler" : 0,
                    "target" : {
                        "node" : 7,
                        "path" : "translation"
                    }
                },
                {
                    "sampler" : 1,
                    "target" : {
                        "node" : 7,
                        "path" : "rotation"
                    }
                },
                {
                    "sampler" : 2,
                    "target" : {
                        "node" : 7,
                        "path" : "scale"
                    }
                }
            ],
            "name" : "NurbsPath.001Action",
            "samplers" : [
                {
                    "input" : 9,
                    "interpolation" : "STEP",
                    "output" : 17
                },
                {
                    "input" : 9,
                    "interpolation" : "STEP",
                    "output" : 18
                },
                {
                    "input" : 9,
                    "interpolation" : "STEP",
                    "output" : 19
                }
            ]
        },
        {
            "channels" : [
                {
                    "sampler" : 0,
                    "target" : {
                        "node" : 8,
                        "path" : "translation"
                    }
                },
                {
                    "sampler" : 1,
                    "target" : {
                        "node" : 8,
                        "path" : "rotation"
                    }
                },
                {
                    "sampler" : 2,
                    "target" : {
                        "node" : 8,
                        "path" : "scale"
                    }
                }
            ],
            "name" : "CubeAction.001",
            "samplers" : [
                {
                    "input" : 9,
                    "interpolation" : "STEP",
                    "output" : 20
                },
                {
                    "input" : 9,
                    "interpolation" : "STEP",
                    "output" : 21
                },
                {
                    "input" : 9,
                    "interpolation" : "STEP",
                    "output" : 22
                }
            ]
        }
    ],
    "materials" : [
        {
            "doubleSided" : true,
            "name" : "Material.001",
            "pbrMetallicRoughness" : {}
        },
        {
            "doubleSided" : true,
            "name" : "Material.002",
            "pbrMetallicRoughness" : {}
        }
    ],
    "meshes" : [
        {
            "name" : "Cube.005",
            "primitives" : [
                {
                    "attributes" : {
                        "POSITION" : 0,
                        "TEXCOORD_0" : 1
                    },
                    "indices" : 2,
                    "material" : 0
                }
            ]
        },
        {
            "name" : "NurbsPath",
            "primitives" : [
                {
                    "attributes" : {
                        "POSITION" : 3
                    },
                    "indices" : 4,
                    "mode" : 1
                }
            ]
        },
        {
            "name" : "NurbsPath.002",
            "primitives" : [
                {
                    "attributes" : {
                        "POSITION" : 5
                    },
                    "indices" : 4,
                    "mode" : 1
                }
            ]
        },
        {
            "name" : "NurbsPath.001",
            "primitives" : [
                {
                    "attributes" : {
                        "POSITION" : 6
                    },
                    "indices" : 4,
                    "mode" : 1
                }
            ]
        },
        {
            "name" : "Cube.001",
            "primitives" : [
                {
                    "attributes" : {
                        "POSITION" : 7,
                        "TEXCOORD_0" : 8
                    },
                    "indices" : 2,
                    "material" : 1
                }
            ]
        }
    ],
    "accessors" : [
        {
            "bufferView" : 0,
            "componentType" : 5126,
            "count" : 14,
            "max" : [
                1,
                1,
                1
            ],
            "min" : [
                -1,
                -1,
                -1
            ],
            "type" : "VEC3"
        },
        {
            "bufferView" : 1,
            "componentType" : 5126,
            "count" : 14,
            "type" : "VEC2"
        },
        {
            "bufferView" : 2,
            "componentType" : 5123,
            "count" : 36,
            "type" : "SCALAR"
        },
        {
            "bufferView" : 3,
            "componentType" : 5126,
            "count" : 48,
            "max" : [
                1.999999761581421,
                0,
                0
            ],
            "min" : [
                -2,
                0,
                0
            ],
            "type" : "VEC3"
        },
        {
            "bufferView" : 4,
            "componentType" : 5123,
            "count" : 94,
            "type" : "SCALAR"
        },
        {
            "bufferView" : 5,
            "componentType" : 5126,
            "count" : 48,
            "max" : [
                44.99668502807617,
                15.79146671295166,
                2.7776381969451904
            ],
            "min" : [
                5.471973896026611,
                0.7408146858215332,
                -10.96292781829834
            ],
            "type" : "VEC3"
        },
        {
            "bufferView" : 6,
            "componentType" : 5126,
            "count" : 48,
            "max" : [
                1.999999761581421,
                0,
                0
            ],
            "min" : [
                -2,
                0,
                0
            ],
            "type" : "VEC3"
        },
        {
            "bufferView" : 7,
            "componentType" : 5126,
            "count" : 14,
            "max" : [
                1,
                1,
                1
            ],
            "min" : [
                -1,
                -1,
                -1
            ],
            "type" : "VEC3"
        },
        {
            "bufferView" : 8,
            "componentType" : 5126,
            "count" : 14,
            "type" : "VEC2"
        },
        {
            "bufferView" : 9,
            "componentType" : 5126,
            "count" : 1,
            "max" : [
                10.5
            ],
            "min" : [
                10.5
            ],
            "type" : "SCALAR"
        },
        {
            "bufferView" : 10,
            "componentType" : 5126,
            "count" : 1,
            "type" : "VEC3"
        },
        {
            "bufferView" : 11,
            "componentType" : 5126,
            "count" : 1,
            "type" : "VEC4"
        },
        {
            "bufferView" : 12,
            "componentType" : 5126,
            "count" : 1,
            "type" : "VEC3"
        },
        {
            "bufferView" : 13,
            "componentType" : 5126,
            "count" : 46,
            "max" : [
                6.625
            ],
            "min" : [
                4.75
            ],
            "type" : "SCALAR"
        },
        {
            "bufferView" : 14,
            "componentType" : 5126,
            "count" : 46,
            "type" : "VEC3"
        },
        {
            "bufferView" : 15,
            "componentType" : 5126,
            "count" : 46,
            "type" : "VEC4"
        },
        {
            "bufferView" : 16,
            "componentType" : 5126,
            "count" : 46,
            "type" : "VEC3"
        },
        {
            "bufferView" : 17,
            "componentType" : 5126,
            "count" : 1,
            "type" : "VEC3"
        },
        {
            "bufferView" : 18,
            "componentType" : 5126,
            "count" : 1,
            "type" : "VEC4"
        },
        {
            "bufferView" : 19,
            "componentType" : 5126,
            "count" : 1,
            "type" : "VEC3"
        },
        {
            "bufferView" : 20,
            "componentType" : 5126,
            "count" : 1,
            "type" : "VEC3"
        },
        {
            "bufferView" : 21,
            "componentType" : 5126,
            "count" : 1,
            "type" : "VEC4"
        },
        {
            "bufferView" : 22,
            "componentType" : 5126,
            "count" : 1,
            "type" : "VEC3"
        }
    ],
    "bufferViews" : [
        {
            "buffer" : 0,
            "byteLength" : 168,
            "byteOffset" : 0
        },
        {
            "buffer" : 0,
            "byteLength" : 112,
            "byteOffset" : 168
        },
        {
            "buffer" : 0,
            "byteLength" : 72,
            "byteOffset" : 280
        },
        {
            "buffer" : 0,
            "byteLength" : 576,
            "byteOffset" : 352
        },
        {
            "buffer" : 0,
            "byteLength" : 188,
            "byteOffset" : 928
        },
        {
            "buffer" : 0,
            "byteLength" : 576,
            "byteOffset" : 1116
        },
        {
            "buffer" : 0,
            "byteLength" : 576,
            "byteOffset" : 1692
        },
        {
            "buffer" : 0,
            "byteLength" : 168,
            "byteOffset" : 2268
        },
        {
            "buffer" : 0,
            "byteLength" : 112,
            "byteOffset" : 2436
        },
        {
            "buffer" : 0,
            "byteLength" : 4,
            "byteOffset" : 2548
        },
        {
            "buffer" : 0,
            "byteLength" : 12,
            "byteOffset" : 2552
        },
        {
            "buffer" : 0,
            "byteLength" : 16,
            "byteOffset" : 2564
        },
        {
            "buffer" : 0,
            "byteLength" : 12,
            "byteOffset" : 2580
        },
        {
            "buffer" : 0,
            "byteLength" : 184,
            "byteOffset" : 2592
        },
        {
            "buffer" : 0,
            "byteLength" : 552,
            "byteOffset" : 2776
        },
        {
            "buffer" : 0,
            "byteLength" : 736,
            "byteOffset" : 3328
        },
        {
            "buffer" : 0,
            "byteLength" : 552,
            "byteOffset" : 4064
        },
        {
            "buffer" : 0,
            "byteLength" : 12,
            "byteOffset" : 4616
        },
        {
            "buffer" : 0,
            "byteLength" : 16,
            "byteOffset" : 4628
        },
        {
            "buffer" : 0,
            "byteLength" : 12,
            "byteOffset" : 4644
        },
        {
            "buffer" : 0,
            "byteLength" : 12,
            "byteOffset" : 4656
        },
        {
            "buffer" : 0,
            "byteLength" : 16,
            "byteOffset" : 4668
        },
        {
            "buffer" : 0,
            "byteLength" : 12,
            "byteOffset" : 4684
        }
    ],
    "buffers" : [
        {
            "byteLength" : 4696,
            "uri" : "cloud2.bin"
        }
    ]
}
